<svg xmlns="http://www.w3.org/2000/svg" viewBox="0 -753 3701 805" role="img" aria-label="KruxOS">
  <title>KruxOS</title>
  <g fill="#08080F">
    <path d="M73 0L178 0L178-349L537 0L665 0L289-371L628-700L501-700L178-390L178-700L73-700Z"></path>
    <path d="M746 0L842 0L842-283C871-373 927-434 1020-434C1047-434 1069-428 1084-422L1087-506C1071-511 1048-514 1026-514C944-514 877-469 841-398C841-436 840-471 836-502L746-502Z"></path>
    <path d="M1404 12C1489 12 1566-20 1607-80C1608-50 1610-23 1615 0L1703 0L1703-502L1607-502L1607-171C1579-102 1511-62 1435-62C1340-62 1271-126 1271-219L1271-502L1174-502L1174-207C1174-80 1260 12 1404 12Z"></path>
    <path d="M1782 0L1888 0L2049-201L2210 0L2315 0L2109-258L2305-502L2202-502L2049-311L1895-502L1792-502L1989-258Z"></path>
    <path transform="translate(774 0)" d="M2644 13C2807 13 2927-59 2927-182C2927-299 2817-343 2685-386C2579-420 2467-451 2467-527C2467-588 2537-633 2654-633C2748-633 2835-606 2883-581L2890-665C2837-687 2752-712 2650-712C2473-712 2363-637 2363-524C2363-403 2487-357 2609-318C2721-281 2821-251 2821-176C2821-108 2746-66 2638-66C2542-66 2436-95 2360-135L2349-49C2421-15 2545 13 2644 13Z"></path>
  </g>
  <circle cx="2723.5" cy="-350.5" r="370.5" fill="none" stroke="#1D9E75" stroke-width="1.5" vector-effect="non-scaling-stroke"></circle>
  <circle cx="2723.5" cy="-350.5" r="108" fill="#5DCAA5"></circle>
</svg>